<svg width="68" height="69" viewBox="0 0 68 69" fill="none" xmlns="http://www.w3.org/2000/svg">
<path fill-rule="evenodd" clip-rule="evenodd" d="M66.9498 40.5577C67.0822 39.3447 67.1502 38.1123 67.1502 36.864C67.1502 18.2742 52.0801 3.2041 33.4902 3.2041C16.7143 3.2041 2.80477 15.4767 0.25 31.5335C8.02573 27.4279 21.8726 23.2609 34.5421 35.5785C46.244 46.9554 58.9505 44.2693 66.9498 40.5577Z" fill="url(#paint0_linear)" fill-opacity="0.6"/>
<path fill-rule="evenodd" clip-rule="evenodd" d="M33.7102 2.28882e-05C15.0926 2.28882e-05 6.86646e-05 15.3178 6.86646e-05 34.2133C6.86646e-05 53.1088 15.0926 68.4266 33.7102 68.4266C52.3279 68.4266 67.4204 53.1088 67.4204 34.2133C67.4204 15.3178 52.3279 2.28882e-05 33.7102 2.28882e-05Z" fill="url(#paint1_linear)" fill-opacity="0.94"/>
<path fill-rule="evenodd" clip-rule="evenodd" d="M67.7003 37.5577C67.8327 36.3447 67.9006 35.1123 67.9006 33.864C67.9006 15.2742 52.8306 0.204102 34.2407 0.204102C17.4648 0.204102 3.55526 12.4767 1.00049 28.5335C8.77622 24.4279 22.6231 20.2609 35.2926 32.5785C46.9945 43.9554 59.701 41.2693 67.7003 37.5577Z" fill="url(#paint2_linear)" fill-opacity="0.94"/>
<g filter="url(#filter0_d)">
<path d="M23.8105 32.6791C25.9572 33.0291 27.6022 33.8341 28.7455 35.0941C29.8888 36.3308 30.4605 37.8708 30.4605 39.7141C30.4605 41.1374 30.0872 42.4558 29.3405 43.6691C28.5938 44.8591 27.4505 45.8158 25.9105 46.5391C24.3938 47.2624 22.5272 47.6241 20.3105 47.6241C18.5838 47.6241 16.8805 47.4024 15.2005 46.9591C13.5438 46.4924 12.1322 45.8391 10.9655 44.9991L13.1705 40.6591C14.1038 41.3591 15.1772 41.9074 16.3905 42.3041C17.6272 42.6774 18.8872 42.8641 20.1705 42.8641C21.5938 42.8641 22.7138 42.5958 23.5305 42.0591C24.3472 41.4991 24.7555 40.7174 24.7555 39.7141C24.7555 37.7074 23.2272 36.7041 20.1705 36.7041H17.5805V32.9591L22.6205 27.2541H12.1905V22.7041H29.3405V26.3791L23.8105 32.6791ZM34.6184 22.7041H45.7484C48.4084 22.7041 50.7534 23.2174 52.7834 24.2441C54.8367 25.2474 56.4234 26.6708 57.5434 28.5141C58.6867 30.3574 59.2584 32.5041 59.2584 34.9541C59.2584 37.4041 58.6867 39.5508 57.5434 41.3941C56.4234 43.2374 54.8367 44.6724 52.7834 45.6991C50.7534 46.7024 48.4084 47.2041 45.7484 47.2041H34.6184V22.7041ZM45.4684 42.5491C47.9184 42.5491 49.8667 41.8724 51.3134 40.5191C52.7834 39.1424 53.5184 37.2874 53.5184 34.9541C53.5184 32.6208 52.7834 30.7774 51.3134 29.4241C49.8667 28.0474 47.9184 27.3591 45.4684 27.3591H40.2884V42.5491H45.4684Z" fill="white"/>
<path d="M23.8105 32.6791C25.9572 33.0291 27.6022 33.8341 28.7455 35.0941C29.8888 36.3308 30.4605 37.8708 30.4605 39.7141C30.4605 41.1374 30.0872 42.4558 29.3405 43.6691C28.5938 44.8591 27.4505 45.8158 25.9105 46.5391C24.3938 47.2624 22.5272 47.6241 20.3105 47.6241C18.5838 47.6241 16.8805 47.4024 15.2005 46.9591C13.5438 46.4924 12.1322 45.8391 10.9655 44.9991L13.1705 40.6591C14.1038 41.3591 15.1772 41.9074 16.3905 42.3041C17.6272 42.6774 18.8872 42.8641 20.1705 42.8641C21.5938 42.8641 22.7138 42.5958 23.5305 42.0591C24.3472 41.4991 24.7555 40.7174 24.7555 39.7141C24.7555 37.7074 23.2272 36.7041 20.1705 36.7041H17.5805V32.9591L22.6205 27.2541H12.1905V22.7041H29.3405V26.3791L23.8105 32.6791ZM34.6184 22.7041H45.7484C48.4084 22.7041 50.7534 23.2174 52.7834 24.2441C54.8367 25.2474 56.4234 26.6708 57.5434 28.5141C58.6867 30.3574 59.2584 32.5041 59.2584 34.9541C59.2584 37.4041 58.6867 39.5508 57.5434 41.3941C56.4234 43.2374 54.8367 44.6724 52.7834 45.6991C50.7534 46.7024 48.4084 47.2041 45.7484 47.2041H34.6184V22.7041ZM45.4684 42.5491C47.9184 42.5491 49.8667 41.8724 51.3134 40.5191C52.7834 39.1424 53.5184 37.2874 53.5184 34.9541C53.5184 32.6208 52.7834 30.7774 51.3134 29.4241C49.8667 28.0474 47.9184 27.3591 45.4684 27.3591H40.2884V42.5491H45.4684Z" fill="url(#paint3_linear)"/>
</g>
<defs>
<filter id="filter0_d" x="6.96533" y="22.7041" width="56.2929" height="32.92" filterUnits="userSpaceOnUse" color-interpolation-filters="sRGB">
<feFlood flood-opacity="0" result="BackgroundImageFix"/>
<feColorMatrix in="SourceAlpha" type="matrix" values="0 0 0 0 0 0 0 0 0 0 0 0 0 0 0 0 0 0 127 0"/>
<feOffset dy="4"/>
<feGaussianBlur stdDeviation="2"/>
<feColorMatrix type="matrix" values="0 0 0 0 0 0 0 0 0 0 0 0 0 0 0 0 0 0 0.25 0"/>
<feBlend mode="normal" in2="BackgroundImageFix" result="effect1_dropShadow"/>
<feBlend mode="normal" in="SourceGraphic" in2="effect1_dropShadow" result="shape"/>
</filter>
<linearGradient id="paint0_linear" x1="33.7001" y1="3.2041" x2="33.7001" y2="43.7597" gradientUnits="userSpaceOnUse">
<stop stop-color="#5A95ED"/>
<stop offset="1" stop-color="#5A95ED" stop-opacity="0"/>
</linearGradient>
<linearGradient id="paint1_linear" x1="33.7102" y1="68.4266" x2="33.7102" y2="2.28882e-05" gradientUnits="userSpaceOnUse">
<stop stop-color="#000916" stop-opacity="0.94"/>
<stop offset="0.453646" stop-color="#03419F"/>
</linearGradient>
<linearGradient id="paint2_linear" x1="34.4506" y1="0.204102" x2="34.4506" y2="40.7597" gradientUnits="userSpaceOnUse">
<stop stop-color="#357CE6"/>
<stop offset="1" stop-color="#8CB5F3" stop-opacity="0"/>
</linearGradient>
<linearGradient id="paint3_linear" x1="37.5005" y1="13.2041" x2="37.5005" y2="39.2041" gradientUnits="userSpaceOnUse">
<stop offset="0.615104" stop-color="white" stop-opacity="0"/>
<stop offset="1" stop-color="#CCCCCC"/>
</linearGradient>
</defs>
</svg>
